<svg id="Layer_1" data-name="Layer 1" xmlns="http://www.w3.org/2000/svg" viewBox="0 0 170.08 170.08"><defs><style>.cls-1{fill:#006bab;}</style></defs><title>contents</title><path class="cls-1" d="M64.49,93.56a135.91,135.91,0,0,0-22.72,2s-2.49-8.38-7.31-10.43-7-1.34-7-1.34.62-16.31,14.08-16.31H87.77c13.46,0,14.08,16.31,14.08,16.31s-2.14-.71-7,1.34-7.31,10.43-7.31,10.43a135.91,135.91,0,0,0-22.72-2Zm29.16,27.71c8.29,0,8.2-7.93,8.2-7.93s.53-11.49,1.6-10.34a6,6,0,0,0,5-5.35s1.78-7.93-6.59-9.62-12,13.54-12,13.54A67.92,67.92,0,0,0,79.57,98.9a61.6,61.6,0,0,0-14.7-1.16h-.38a61.6,61.6,0,0,0-14.7,1.16,67.92,67.92,0,0,0-10.25,2.67S35.89,86.34,27.52,88s-6.59,9.62-6.59,9.62a6,6,0,0,0,5,5.35c1.07-1.16,1.6,10.34,1.6,10.34s-.09,7.93,8.2,7.93Zm4,7.39v-2.93A2.69,2.69,0,0,0,95,123.05H88.67A2.69,2.69,0,0,0,86,125.73v2.93a2.69,2.69,0,0,0,2.68,2.68H95A2.69,2.69,0,0,0,97.66,128.66Zm-63.28,2.68H40.7a2.69,2.69,0,0,0,2.68-2.68v-2.93a2.69,2.69,0,0,0-2.68-2.68H34.38a2.69,2.69,0,0,0-2.68,2.68v2.93A2.69,2.69,0,0,0,34.38,131.34Z"/><path class="cls-1" d="M109.4,94.59h35.27A3.63,3.63,0,0,0,148.29,91V59.67a3.63,3.63,0,0,0-3.62-3.62H84.11a3.63,3.63,0,0,0-3.62,3.62V66.6l-4.2,0V56.44a3.63,3.63,0,0,1,3.62-3.62h68.95a3.63,3.63,0,0,1,3.62,3.62V96.36a3.63,3.63,0,0,1-3.62,3.62H108.6A9.31,9.31,0,0,0,109.4,94.59Zm5,1.06A1.55,1.55,0,1,0,116,97.21,1.55,1.55,0,0,0,114.42,95.65Z"/><path class="cls-1" d="M102.82,110a58.15,58.15,0,0,0,12,1.42h.55c8.46,0,19.55-2.79,21.54-5.17s-1.29-4.18-1.29-4.18H107.11a8,8,0,0,1-3,1.73C102.78,104,102.82,110,102.82,110Z"/></svg>